# xmcd CD database file generated by OrangeCD 6.3
#
# Track frame offsets:
#	150
#	10345
#	19791
#	30713
#	38005
#	49397
#	58201
#	68496
#	83885
#	97943
#	106239
#	119995
#	131081
#	147392
#	158407
#	168833
#	181619
#
# Disc length: 2689 seconds
#
# Revision: 0
# Processed by: cddbd v1.5.2PL0 Copyright (c) Steve Scherf et al.
# Submitted via: OrangeCD 6.3
#
DISCID=dd0a7f11
DTITLE=The Whiskey Sournotes - Gold Vol II
DYEAR=1999
DGENRE=Country
TTITLE0=I Shit My Pants
TTITLE1=Hey Hell Who Cares (That's Just My Life Goin' Bye)
TTITLE2=Happy Holidays (From The Sournotes)
TTITLE3=The Sexual Intercourse Polka
TTITLE4=I Fucked Your Mama
TTITLE5=Rich S.O.B.
TTITLE6=Peel Back The Layers
TTITLE7=Hardcore Porn
TTITLE8=Me and The Animals
TTITLE9=The Last Thing I Do
TTITLE10=I Get Depressed, When I Listen
TTITLE11=Poopy Butt Dog
TTITLE12=High Colonic
TTITLE13=Cold Cruel World
TTITLE14=Don't Be Dependent On Me
TTITLE15=I Dig Love II
TTITLE16=[Unknown]
EXTD=
EXTT0=
EXTT1=
EXTT2=
EXTT3=
EXTT4=
EXTT5=
EXTT6=
EXTT7=
EXTT8=
EXTT9=
EXTT10=
EXTT11=
EXTT12=
EXTT13=
EXTT14=
EXTT15=
EXTT16=
PLAYORDER=
